<svg width="150" height="50" viewBox="0 0 150 50" fill="none" xmlns="http://www.w3.org/2000/svg">
<path d="M62.4299 34V14.26H64.8659L72.1739 27.896L79.4539 14.26H81.8339V34H79.2299V19.524L73.0419 30.976H71.2779L65.0619 19.58V34H62.4299ZM83.3831 34L92.1751 14.26H94.5831L103.403 34H100.435L98.3631 29.184H88.3671L86.3231 34H83.3831ZM93.3511 17.48L89.4031 26.832H97.3831L93.4071 17.48H93.3511ZM107.524 34V16.696H100.524V14.26H117.408V16.696H110.408V34H107.524ZM118.705 34V14.26H131.473V16.612H121.505V22.8H130.885V25.152H121.505V31.648H131.473V34H118.705ZM140.38 34.252C138.831 34.252 137.412 34.056 136.124 33.664C134.836 33.2533 133.744 32.684 132.848 31.956L133.772 29.66C134.705 30.3693 135.704 30.9013 136.768 31.256C137.832 31.6107 139.036 31.788 140.38 31.788C141.967 31.788 143.133 31.508 143.88 30.948C144.645 30.3693 145.028 29.6227 145.028 28.708C145.028 27.9613 144.757 27.3733 144.216 26.944C143.675 26.496 142.769 26.1413 141.5 25.88L138.504 25.264C136.731 24.8907 135.405 24.2747 134.528 23.416C133.669 22.5573 133.24 21.4 133.24 19.944C133.24 18.768 133.548 17.732 134.164 16.836C134.799 15.94 135.676 15.2493 136.796 14.764C137.916 14.26 139.204 14.008 140.66 14.008C142.004 14.008 143.245 14.2133 144.384 14.624C145.541 15.016 146.521 15.5947 147.324 16.36L146.372 18.572C144.785 17.172 142.872 16.472 140.632 16.472C139.251 16.472 138.149 16.78 137.328 17.396C136.525 18.012 136.124 18.8333 136.124 19.86C136.124 20.644 136.376 21.2693 136.88 21.736C137.384 22.2027 138.224 22.5573 139.4 22.8L142.368 23.416C144.235 23.808 145.625 24.4147 146.54 25.236C147.455 26.0387 147.912 27.1307 147.912 28.512C147.912 29.6693 147.604 30.6773 146.988 31.536C146.372 32.3947 145.504 33.0667 144.384 33.552C143.264 34.0187 141.929 34.252 140.38 34.252Z" fill="#3C3C3C"/>
<path d="M3.64124 34V14.26H16.7732V17.116H7.08524V22.548H16.1572V25.404H7.08524V31.144H16.7732V34H3.64124ZM19.2283 34V14.26H21.9163L32.5283 28.036V14.26H35.8603V34H33.2003L22.5603 20.168V34H19.2283ZM48.5456 34.28C46.3616 34.28 44.5136 33.8693 43.0016 33.048C41.5082 32.2267 40.3696 31.06 39.5856 29.548C38.8016 28.036 38.4096 26.244 38.4096 24.172C38.4096 22.0813 38.8109 20.28 39.6136 18.768C40.4162 17.2373 41.5736 16.0613 43.0856 15.24C44.5976 14.4 46.4082 13.98 48.5176 13.98C49.8989 13.98 51.1962 14.1853 52.4096 14.596C53.6229 14.988 54.6309 15.5387 55.4336 16.248L54.2296 19.048C53.3522 18.3573 52.4562 17.8627 51.5416 17.564C50.6269 17.2653 49.6189 17.116 48.5176 17.116C46.4269 17.116 44.8402 17.7227 43.7576 18.936C42.6936 20.1493 42.1616 21.8947 42.1616 24.172C42.1616 26.468 42.7122 28.2133 43.8136 29.408C44.9149 30.6027 46.5482 31.2 48.7136 31.2C49.3296 31.2 49.9549 31.1533 50.5896 31.06C51.2429 30.948 51.8869 30.7893 52.5216 30.584V25.992H47.9856V23.332H55.5176V32.824C54.6029 33.272 53.5202 33.6267 52.2696 33.888C51.0189 34.1493 49.7776 34.28 48.5456 34.28Z" fill="#B82A51"/>
</svg>
